<?xml version="1.0" encoding="utf-8" standalone="no"?>
<!DOCTYPE svg PUBLIC "-//W3C//DTD SVG 1.1//EN"
  "http://www.w3.org/Graphics/SVG/1.1/DTD/svg11.dtd">
<svg xmlns:xlink="http://www.w3.org/1999/xlink" width="360pt" height="216pt" viewBox="0 0 360 216" xmlns="http://www.w3.org/2000/svg" version="1.1">
 <metadata>
  <rdf:RDF xmlns:dc="http://purl.org/dc/elements/1.1/" xmlns:cc="http://creativecommons.org/ns#" xmlns:rdf="http://www.w3.org/1999/02/22-rdf-syntax-ns#">
   <cc:Work>
    <dc:type rdf:resource="http://purl.org/dc/dcmitype/StillImage"/>
    <dc:date>2025-06-13T10:31:19.852153</dc:date>
    <dc:format>image/svg+xml</dc:format>
    <dc:creator>
     <cc:Agent>
      <dc:title>Matplotlib v3.5.1, https://matplotlib.org/</dc:title>
     </cc:Agent>
    </dc:creator>
   </cc:Work>
  </rdf:RDF>
 </metadata>
 <defs>
  <style type="text/css">*{stroke-linejoin: round; stroke-linecap: butt}</style>
 </defs>
 <g id="figure_1">
  <g id="patch_1">
   <path d="M 0 216 
L 360 216 
L 360 0 
L 0 0 
z
" style="fill: #ffffff"/>
  </g>
  <g id="axes_1">
   <g id="patch_2">
    <path d="M 40.12 174.04 
L 338.04 174.04 
L 338.04 14.76 
L 40.12 14.76 
z
" style="fill: #ffffff"/>
   </g>
   <g id="PolyCollection_1">
    <path d="M 40.122979 54.58 
L 40.122979 25.814294 
L 40.421191 26.080021 
L 40.719404 26.345748 
L 41.017616 26.611475 
L 41.315828 26.877202 
L 41.61404 27.14293 
L 41.912253 27.408657 
L 42.210465 27.674384 
L 42.508677 27.940111 
L 42.806889 28.205838 
L 43.105102 28.471565 
L 43.403314 28.737292 
L 43.701526 29.003019 
L 43.999739 29.268746 
L 44.297951 29.534473 
L 44.596163 29.8002 
L 44.894375 30.065927 
L 45.192588 30.331655 
L 45.4908 30.597382 
L 45.789012 30.863109 
L 46.087224 31.128836 
L 46.385437 31.394563 
L 46.683649 31.66029 
L 46.981861 31.926017 
L 47.280073 32.191744 
L 47.578286 32.457471 
L 47.876498 32.723198 
L 48.17471 32.988925 
L 48.472922 33.254652 
L 48.771135 33.52038 
L 49.069347 33.786107 
L 49.367559 34.051834 
L 49.665771 34.317561 
L 49.963984 34.583288 
L 50.262196 34.849015 
L 50.560408 35.114742 
L 50.85862 35.380469 
L 51.156833 35.646196 
L 51.455045 35.911923 
L 51.753257 36.17765 
L 52.051469 36.443377 
L 52.349682 36.709105 
L 52.647894 36.974832 
L 52.946106 37.240559 
L 53.244318 37.506286 
L 53.542531 37.772013 
L 53.840743 38.03774 
L 54.138955 38.303467 
L 54.437167 38.569194 
L 54.73538 38.834921 
L 55.033592 39.100648 
L 55.331804 39.366375 
L 55.630016 39.632102 
L 55.928229 39.89783 
L 56.226441 40.163557 
L 56.524653 40.429284 
L 56.822865 40.695011 
L 57.121078 40.960738 
L 57.41929 41.226465 
L 57.717502 41.492192 
L 58.015714 41.757919 
L 58.313927 42.023646 
L 58.612139 42.289373 
L 58.910351 42.5551 
L 59.208563 42.820827 
L 59.506776 43.086555 
L 59.804988 43.352282 
L 60.1032 43.618009 
L 60.401412 43.883736 
L 60.699625 44.149463 
L 60.997837 44.41519 
L 61.296049 44.680917 
L 61.594261 44.946644 
L 61.892474 45.212371 
L 62.190686 45.478098 
L 62.488898 45.743825 
L 62.78711 46.009553 
L 63.085323 46.27528 
L 63.383535 46.541007 
L 63.681747 46.806734 
L 63.97996 47.072461 
L 64.278172 47.338188 
L 64.576384 47.603915 
L 64.874596 47.869642 
L 65.172809 48.135369 
L 65.471021 48.401096 
L 65.769233 48.666823 
L 66.067445 48.93255 
L 66.365658 49.198278 
L 66.66387 49.464005 
L 66.962082 49.729732 
L 67.260294 49.995459 
L 67.558507 50.261186 
L 67.856719 50.526913 
L 68.154931 50.79264 
L 68.453143 51.058367 
L 68.751356 51.324094 
L 69.049568 51.589821 
L 69.34778 51.855548 
L 69.645992 52.121275 
L 69.944205 52.387003 
L 70.242417 52.65273 
L 70.540629 52.918457 
L 70.838841 53.184184 
L 71.137054 53.449911 
L 71.435266 53.715638 
L 71.733478 53.981365 
L 72.03169 54.247092 
L 72.329903 54.512819 
L 72.329903 54.58 
L 72.329903 54.58 
L 72.03169 54.58 
L 71.733478 54.58 
L 71.435266 54.58 
L 71.137054 54.58 
L 70.838841 54.58 
L 70.540629 54.58 
L 70.242417 54.58 
L 69.944205 54.58 
L 69.645992 54.58 
L 69.34778 54.58 
L 69.049568 54.58 
L 68.751356 54.58 
L 68.453143 54.58 
L 68.154931 54.58 
L 67.856719 54.58 
L 67.558507 54.58 
L 67.260294 54.58 
L 66.962082 54.58 
L 66.66387 54.58 
L 66.365658 54.58 
L 66.067445 54.58 
L 65.769233 54.58 
L 65.471021 54.58 
L 65.172809 54.58 
L 64.874596 54.58 
L 64.576384 54.58 
L 64.278172 54.58 
L 63.97996 54.58 
L 63.681747 54.58 
L 63.383535 54.58 
L 63.085323 54.58 
L 62.78711 54.58 
L 62.488898 54.58 
L 62.190686 54.58 
L 61.892474 54.58 
L 61.594261 54.58 
L 61.296049 54.58 
L 60.997837 54.58 
L 60.699625 54.58 
L 60.401412 54.58 
L 60.1032 54.58 
L 59.804988 54.58 
L 59.506776 54.58 
L 59.208563 54.58 
L 58.910351 54.58 
L 58.612139 54.58 
L 58.313927 54.58 
L 58.015714 54.58 
L 57.717502 54.58 
L 57.41929 54.58 
L 57.121078 54.58 
L 56.822865 54.58 
L 56.524653 54.58 
L 56.226441 54.58 
L 55.928229 54.58 
L 55.630016 54.58 
L 55.331804 54.58 
L 55.033592 54.58 
L 54.73538 54.58 
L 54.437167 54.58 
L 54.138955 54.58 
L 53.840743 54.58 
L 53.542531 54.58 
L 53.244318 54.58 
L 52.946106 54.58 
L 52.647894 54.58 
L 52.349682 54.58 
L 52.051469 54.58 
L 51.753257 54.58 
L 51.455045 54.58 
L 51.156833 54.58 
L 50.85862 54.58 
L 50.560408 54.58 
L 50.262196 54.58 
L 49.963984 54.58 
L 49.665771 54.58 
L 49.367559 54.58 
L 49.069347 54.58 
L 48.771135 54.58 
L 48.472922 54.58 
L 48.17471 54.58 
L 47.876498 54.58 
L 47.578286 54.58 
L 47.280073 54.58 
L 46.981861 54.58 
L 46.683649 54.58 
L 46.385437 54.58 
L 46.087224 54.58 
L 45.789012 54.58 
L 45.4908 54.58 
L 45.192588 54.58 
L 44.894375 54.58 
L 44.596163 54.58 
L 44.297951 54.58 
L 43.999739 54.58 
L 43.701526 54.58 
L 43.403314 54.58 
L 43.105102 54.58 
L 42.806889 54.58 
L 42.508677 54.58 
L 42.210465 54.58 
L 41.912253 54.58 
L 41.61404 54.58 
L 41.315828 54.58 
L 41.017616 54.58 
L 40.719404 54.58 
L 40.421191 54.58 
L 40.122979 54.58 
z
" clip-path="url(#pe9eaa22e0f)" style="fill: #008000; fill-opacity: 0.3; stroke: #008000; stroke-opacity: 0.3"/>
    <path d="M 323.42462 54.58 
L 323.42462 54.329948 
L 323.722833 54.064221 
L 324.021045 53.798494 
L 324.319257 53.532767 
L 324.617469 53.26704 
L 324.915682 53.001313 
L 325.213894 52.735586 
L 325.512106 52.469859 
L 325.810318 52.204132 
L 326.108531 51.938405 
L 326.406743 51.672678 
L 326.704955 51.406951 
L 327.003167 51.141223 
L 327.30138 50.875496 
L 327.599592 50.609769 
L 327.897804 50.344042 
L 328.196016 50.078315 
L 328.494229 49.812588 
L 328.792441 49.546861 
L 329.090653 49.281134 
L 329.388865 49.015407 
L 329.687078 48.74968 
L 329.98529 48.483953 
L 330.283502 48.218226 
L 330.581714 47.952498 
L 330.879927 47.686771 
L 331.178139 47.421044 
L 331.476351 47.155317 
L 331.774563 46.88959 
L 332.072776 46.623863 
L 332.370988 46.358136 
L 332.6692 46.092409 
L 332.967412 45.826682 
L 333.265625 45.560955 
L 333.563837 45.295228 
L 333.862049 45.029501 
L 334.160261 44.763773 
L 334.458474 44.498046 
L 334.756686 44.232319 
L 335.054898 43.966592 
L 335.353111 43.700865 
L 335.651323 43.435138 
L 335.949535 43.169411 
L 336.247747 42.903684 
L 336.54596 42.637957 
L 336.844172 42.37223 
L 337.142384 42.106503 
L 337.440596 41.840776 
L 337.738809 41.575048 
L 338.037021 41.309321 
L 338.037021 54.58 
L 338.037021 54.58 
L 337.738809 54.58 
L 337.440596 54.58 
L 337.142384 54.58 
L 336.844172 54.58 
L 336.54596 54.58 
L 336.247747 54.58 
L 335.949535 54.58 
L 335.651323 54.58 
L 335.353111 54.58 
L 335.054898 54.58 
L 334.756686 54.58 
L 334.458474 54.58 
L 334.160261 54.58 
L 333.862049 54.58 
L 333.563837 54.58 
L 333.265625 54.58 
L 332.967412 54.58 
L 332.6692 54.58 
L 332.370988 54.58 
L 332.072776 54.58 
L 331.774563 54.58 
L 331.476351 54.58 
L 331.178139 54.58 
L 330.879927 54.58 
L 330.581714 54.58 
L 330.283502 54.58 
L 329.98529 54.58 
L 329.687078 54.58 
L 329.388865 54.58 
L 329.090653 54.58 
L 328.792441 54.58 
L 328.494229 54.58 
L 328.196016 54.58 
L 327.897804 54.58 
L 327.599592 54.58 
L 327.30138 54.58 
L 327.003167 54.58 
L 326.704955 54.58 
L 326.406743 54.58 
L 326.108531 54.58 
L 325.810318 54.58 
L 325.512106 54.58 
L 325.213894 54.58 
L 324.915682 54.58 
L 324.617469 54.58 
L 324.319257 54.58 
L 324.021045 54.58 
L 323.722833 54.58 
L 323.42462 54.58 
z
" clip-path="url(#pe9eaa22e0f)" style="fill: #008000; fill-opacity: 0.3; stroke: #008000; stroke-opacity: 0.3"/>
   </g>
   <g id="PolyCollection_2">
    <defs>
     <path id="ma0c1e93223" d="M 72.628115 -161.42 
L 72.628115 -161.221454 
L 72.926327 -160.955727 
L 73.224539 -160.69 
L 73.522752 -160.424272 
L 73.820964 -160.158545 
L 74.119176 -159.892818 
L 74.417388 -159.627091 
L 74.715601 -159.361364 
L 75.013813 -159.095637 
L 75.312025 -158.82991 
L 75.610237 -158.564183 
L 75.90845 -158.298456 
L 76.206662 -158.032729 
L 76.504874 -157.767002 
L 76.803086 -157.501275 
L 77.101299 -157.235547 
L 77.399511 -156.96982 
L 77.697723 -156.704093 
L 77.995935 -156.438366 
L 78.294148 -156.172639 
L 78.59236 -155.906912 
L 78.890572 -155.641185 
L 79.188784 -155.375458 
L 79.486997 -155.109731 
L 79.785209 -154.844004 
L 80.083421 -154.578277 
L 80.381633 -154.31255 
L 80.679846 -154.046822 
L 80.978058 -153.781095 
L 81.27627 -153.515368 
L 81.574482 -153.249641 
L 81.872695 -152.983914 
L 82.170907 -152.718187 
L 82.469119 -152.45246 
L 82.767332 -152.186733 
L 83.065544 -151.921006 
L 83.363756 -151.655279 
L 83.661968 -151.389552 
L 83.960181 -151.123824 
L 84.258393 -150.858097 
L 84.556605 -150.59237 
L 84.854817 -150.326643 
L 85.15303 -150.060916 
L 85.451242 -149.795189 
L 85.749454 -149.529462 
L 86.047666 -149.263735 
L 86.345879 -148.998008 
L 86.644091 -148.732281 
L 86.942303 -148.466554 
L 87.240515 -148.200827 
L 87.538728 -147.935099 
L 87.83694 -147.669372 
L 88.135152 -147.403645 
L 88.433364 -147.137918 
L 88.731577 -146.872191 
L 89.029789 -146.606464 
L 89.328001 -146.340737 
L 89.626213 -146.07501 
L 89.924426 -145.809283 
L 90.222638 -145.543556 
L 90.52085 -145.277829 
L 90.819062 -145.012102 
L 91.117275 -144.746374 
L 91.415487 -144.480647 
L 91.713699 -144.21492 
L 92.011911 -143.949193 
L 92.310124 -143.683466 
L 92.608336 -143.417739 
L 92.906548 -143.152012 
L 93.20476 -142.886285 
L 93.502973 -142.620558 
L 93.801185 -142.354831 
L 94.099397 -142.089104 
L 94.397609 -141.823377 
L 94.695822 -141.557649 
L 94.994034 -141.291922 
L 95.292246 -141.026195 
L 95.590458 -140.760468 
L 95.888671 -140.494741 
L 96.186883 -140.229014 
L 96.485095 -139.963287 
L 96.783307 -139.69756 
L 97.08152 -139.431833 
L 97.379732 -139.166106 
L 97.677944 -138.900379 
L 97.976156 -138.634652 
L 98.274369 -138.368924 
L 98.572581 -138.103197 
L 98.870793 -137.83747 
L 99.169005 -137.571743 
L 99.467218 -137.306016 
L 99.76543 -137.040289 
L 100.063642 -136.774562 
L 100.361854 -136.508835 
L 100.660067 -136.243108 
L 100.958279 -135.977381 
L 101.256491 -135.711654 
L 101.554703 -135.445927 
L 101.852916 -135.180199 
L 102.151128 -134.914472 
L 102.44934 -134.648745 
L 102.747553 -134.383018 
L 103.045765 -134.117291 
L 103.343977 -133.851564 
L 103.642189 -133.585837 
L 103.940402 -133.32011 
L 104.238614 -133.054383 
L 104.536826 -132.788656 
L 104.835038 -132.522929 
L 105.133251 -132.257202 
L 105.431463 -131.991474 
L 105.729675 -131.725747 
L 106.027887 -131.46002 
L 106.3261 -131.194293 
L 106.624312 -130.928566 
L 106.922524 -130.662839 
L 107.220736 -130.397112 
L 107.518949 -130.131385 
L 107.817161 -129.865658 
L 108.115373 -129.599931 
L 108.413585 -129.334204 
L 108.711798 -129.068476 
L 109.01001 -128.802749 
L 109.308222 -128.537022 
L 109.606434 -128.271295 
L 109.904647 -128.005568 
L 110.202859 -127.739841 
L 110.501071 -127.474114 
L 110.799283 -127.208387 
L 111.097496 -126.94266 
L 111.395708 -126.676933 
L 111.69392 -126.411206 
L 111.992132 -126.145479 
L 112.290345 -125.879751 
L 112.588557 -125.614024 
L 112.886769 -125.348297 
L 113.184981 -125.08257 
L 113.483194 -124.816843 
L 113.781406 -124.551116 
L 114.079618 -124.285389 
L 114.37783 -124.019662 
L 114.676043 -123.753935 
L 114.974255 -123.488208 
L 115.272467 -123.222481 
L 115.570679 -122.956754 
L 115.868892 -122.691026 
L 116.167104 -122.425299 
L 116.465316 -122.159572 
L 116.763528 -121.893845 
L 117.061741 -121.628118 
L 117.359953 -121.362391 
L 117.658165 -121.096664 
L 117.956377 -120.830937 
L 118.25459 -120.56521 
L 118.552802 -120.299483 
L 118.851014 -120.033756 
L 119.149226 -119.768029 
L 119.447439 -119.502301 
L 119.745651 -119.236574 
L 120.043863 -118.970847 
L 120.342075 -118.70512 
L 120.640288 -118.439393 
L 120.9385 -118.173666 
L 121.236712 -117.907939 
L 121.534925 -117.642212 
L 121.833137 -117.376485 
L 122.131349 -117.110758 
L 122.429561 -116.845031 
L 122.727774 -116.579304 
L 123.025986 -116.313576 
L 123.324198 -116.047849 
L 123.62241 -115.782122 
L 123.920623 -115.516395 
L 124.218835 -115.250668 
L 124.517047 -114.984941 
L 124.815259 -114.719214 
L 125.113472 -114.453487 
L 125.411684 -114.18776 
L 125.709896 -113.922033 
L 126.008108 -113.656306 
L 126.306321 -113.390579 
L 126.604533 -113.124851 
L 126.902745 -112.859124 
L 127.200957 -112.593397 
L 127.49917 -112.32767 
L 127.797382 -112.061943 
L 128.095594 -111.796216 
L 128.393806 -111.530489 
L 128.692019 -111.264762 
L 128.990231 -110.999035 
L 129.288443 -110.733308 
L 129.586655 -110.467581 
L 129.884868 -110.201853 
L 130.18308 -109.936126 
L 130.481292 -109.670399 
L 130.779504 -109.404672 
L 131.077717 -109.138945 
L 131.375929 -108.873218 
L 131.674141 -108.607491 
L 131.972353 -108.341764 
L 132.270566 -108.076037 
L 132.568778 -107.81031 
L 132.86699 -107.544583 
L 133.165202 -107.278856 
L 133.463415 -107.013128 
L 133.761627 -106.747401 
L 134.059839 -106.481674 
L 134.358051 -106.215947 
L 134.656264 -105.95022 
L 134.954476 -105.684493 
L 135.252688 -105.418766 
L 135.5509 -105.153039 
L 135.849113 -104.887312 
L 136.147325 -104.621585 
L 136.445537 -104.355858 
L 136.743749 -104.090131 
L 137.041962 -103.824403 
L 137.340174 -103.558676 
L 137.638386 -103.292949 
L 137.936598 -103.027222 
L 138.234811 -102.761495 
L 138.533023 -102.495768 
L 138.831235 -102.230041 
L 139.129447 -101.964314 
L 139.42766 -101.698587 
L 139.725872 -101.43286 
L 140.024084 -101.167133 
L 140.322296 -100.901406 
L 140.620509 -100.635678 
L 140.918721 -100.369951 
L 141.216933 -100.104224 
L 141.515146 -99.838497 
L 141.813358 -99.57277 
L 142.11157 -99.307043 
L 142.409782 -99.041316 
L 142.707995 -98.775589 
L 143.006207 -98.509862 
L 143.304419 -98.244135 
L 143.602631 -97.978408 
L 143.900844 -97.712681 
L 144.199056 -97.446953 
L 144.497268 -97.181226 
L 144.79548 -96.915499 
L 145.093693 -96.649772 
L 145.391905 -96.384045 
L 145.690117 -96.118318 
L 145.988329 -95.852591 
L 146.286542 -95.586864 
L 146.584754 -95.321137 
L 146.882966 -95.05541 
L 147.181178 -94.789683 
L 147.479391 -94.523956 
L 147.777603 -94.258228 
L 148.075815 -93.992501 
L 148.374027 -93.726774 
L 148.67224 -93.461047 
L 148.970452 -93.19532 
L 149.268664 -92.929593 
L 149.566876 -92.663866 
L 149.865089 -92.398139 
L 150.163301 -92.132412 
L 150.461513 -91.866685 
L 150.759725 -91.600958 
L 151.057938 -91.335231 
L 151.35615 -91.069503 
L 151.654362 -90.803776 
L 151.952574 -90.538049 
L 152.250787 -90.272322 
L 152.548999 -90.006595 
L 152.847211 -89.740868 
L 153.145423 -89.475141 
L 153.443636 -89.209414 
L 153.741848 -88.943687 
L 154.04006 -88.67796 
L 154.338272 -88.412233 
L 154.636485 -88.146505 
L 154.934697 -87.880778 
L 155.232909 -87.615051 
L 155.531121 -87.349324 
L 155.829334 -87.083597 
L 156.127546 -86.81787 
L 156.425758 -86.552143 
L 156.72397 -86.286416 
L 157.022183 -86.020689 
L 157.320395 -85.754962 
L 157.618607 -85.489235 
L 157.916819 -85.223508 
L 158.215032 -84.95778 
L 158.513244 -84.692053 
L 158.811456 -84.426326 
L 159.109668 -84.160599 
L 159.407881 -83.894872 
L 159.706093 -83.629145 
L 160.004305 -83.363418 
L 160.302518 -83.097691 
L 160.60073 -82.831964 
L 160.898942 -82.566237 
L 161.197154 -82.30051 
L 161.495367 -82.034783 
L 161.793579 -81.769055 
L 162.091791 -81.503328 
L 162.390003 -81.237601 
L 162.688216 -80.971874 
L 162.986428 -80.706147 
L 163.28464 -80.44042 
L 163.582852 -80.174693 
L 163.881065 -79.908966 
L 164.179277 -79.643239 
L 164.477489 -79.377512 
L 164.775701 -79.111785 
L 165.073914 -78.846058 
L 165.372126 -78.58033 
L 165.670338 -78.314603 
L 165.96855 -78.048876 
L 166.266763 -77.783149 
L 166.564975 -77.517422 
L 166.863187 -77.251695 
L 167.161399 -76.985968 
L 167.459612 -76.720241 
L 167.757824 -76.454514 
L 168.056036 -76.188787 
L 168.354248 -75.92306 
L 168.652461 -75.657333 
L 168.950673 -75.391606 
L 169.248885 -75.125878 
L 169.547097 -74.860151 
L 169.84531 -74.594424 
L 170.143522 -74.328697 
L 170.441734 -74.06297 
L 170.739946 -73.797243 
L 171.038159 -73.531516 
L 171.336371 -73.265789 
L 171.634583 -73.000062 
L 171.932795 -72.734335 
L 172.231008 -72.468608 
L 172.52922 -72.202881 
L 172.827432 -71.937154 
L 173.125644 -71.671428 
L 173.423857 -71.405701 
L 173.722069 -71.139974 
L 174.020281 -70.874247 
L 174.318493 -70.60852 
L 174.616706 -70.342794 
L 174.914918 -70.077067 
L 175.21313 -69.811341 
L 175.511342 -69.545615 
L 175.809555 -69.279889 
L 176.107767 -69.014163 
L 176.405979 -68.748437 
L 176.704191 -68.482712 
L 177.002404 -68.216987 
L 177.300616 -67.951262 
L 177.598828 -67.685538 
L 177.89704 -67.419814 
L 178.195253 -67.154092 
L 178.493465 -66.88837 
L 178.791677 -66.622648 
L 179.089889 -66.356928 
L 179.388102 -66.09121 
L 179.686314 -65.825493 
L 179.984526 -65.559778 
L 180.282739 -65.294066 
L 180.580951 -65.028356 
L 180.879163 -64.76265 
L 181.177375 -64.496947 
L 181.475588 -64.23125 
L 181.7738 -63.965558 
L 182.072012 -63.699873 
L 182.370224 -63.434197 
L 182.668437 -63.16853 
L 182.966649 -62.902875 
L 183.264861 -62.637233 
L 183.563073 -62.371609 
L 183.861286 -62.106004 
L 184.159498 -61.840424 
L 184.45771 -61.574871 
L 184.755922 -61.309353 
L 185.054135 -61.043875 
L 185.352347 -60.778446 
L 185.650559 -60.513075 
L 185.948771 -60.247772 
L 186.246984 -59.982552 
L 186.545196 -59.717431 
L 186.843408 -59.452427 
L 187.14162 -59.187564 
L 187.439833 -58.922868 
L 187.738045 -58.658372 
L 188.036257 -58.394114 
L 188.334469 -58.130141 
L 188.632682 -57.866508 
L 188.930894 -57.60328 
L 189.229106 -57.340535 
L 189.527318 -57.078366 
L 189.825531 -56.816883 
L 190.123743 -56.556216 
L 190.421955 -56.296523 
L 190.720167 -56.037986 
L 191.01838 -55.780824 
L 191.316592 -55.525295 
L 191.614804 -55.271702 
L 191.913016 -55.020404 
L 192.211229 -54.77182 
L 192.509441 -54.52644 
L 192.807653 -54.284835 
L 193.105865 -54.047667 
L 193.404078 -53.815695 
L 193.70229 -53.589792 
L 194.000502 -53.370946 
L 194.298714 -53.160266 
L 194.596927 -52.958985 
L 194.895139 -52.768455 
L 195.193351 -52.590132 
L 195.491563 -52.42556 
L 195.789776 -52.276331 
L 196.087988 -52.144052 
L 196.3862 -52.030284 
L 196.684412 -51.936486 
L 196.982625 -51.863944 
L 197.280837 -51.813711 
L 197.579049 -51.786545 
L 197.877261 -51.782869 
L 198.175474 -51.802739 
L 198.473686 -51.845845 
L 198.771898 -51.911531 
L 199.070111 -51.99883 
L 199.368323 -52.106521 
L 199.666535 -52.233192 
L 199.964747 -52.377307 
L 200.26296 -52.537268 
L 200.561172 -52.711471 
L 200.859384 -52.898356 
L 201.157596 -53.096435 
L 201.455809 -53.304322 
L 201.754021 -53.520747 
L 202.052233 -53.744562 
L 202.350445 -53.974739 
L 202.648658 -54.210374 
L 202.94687 -54.450671 
L 203.245082 -54.694939 
L 203.543294 -54.94258 
L 203.841507 -55.19308 
L 204.139719 -55.445998 
L 204.437931 -55.700959 
L 204.736143 -55.957641 
L 205.034356 -56.215775 
L 205.332568 -56.475129 
L 205.63078 -56.73551 
L 205.928992 -56.996754 
L 206.227205 -57.258722 
L 206.525417 -57.521298 
L 206.823629 -57.784384 
L 207.121841 -58.047899 
L 207.420054 -58.311772 
L 207.718266 -58.575946 
L 208.016478 -58.840372 
L 208.31469 -59.105009 
L 208.612903 -59.369824 
L 208.911115 -59.634787 
L 209.209327 -59.899874 
L 209.507539 -60.165065 
L 209.805752 -60.430343 
L 210.103964 -60.695694 
L 210.402176 -60.961106 
L 210.700388 -61.22657 
L 210.998601 -61.492076 
L 211.296813 -61.757619 
L 211.595025 -62.023191 
L 211.893237 -62.288789 
L 212.19145 -62.554407 
L 212.489662 -62.820043 
L 212.787874 -63.085694 
L 213.086086 -63.351358 
L 213.384299 -63.617032 
L 213.682511 -63.882714 
L 213.980723 -64.148404 
L 214.278935 -64.4141 
L 214.577148 -64.6798 
L 214.87536 -64.945506 
L 215.173572 -65.211214 
L 215.471784 -65.476926 
L 215.769997 -65.74264 
L 216.068209 -66.008357 
L 216.366421 -66.274075 
L 216.664633 -66.539794 
L 216.962846 -66.805515 
L 217.261058 -67.071237 
L 217.55927 -67.336959 
L 217.857482 -67.602683 
L 218.155695 -67.868407 
L 218.453907 -68.134131 
L 218.752119 -68.399856 
L 219.050332 -68.665581 
L 219.348544 -68.931307 
L 219.646756 -69.197033 
L 219.944968 -69.462759 
L 220.243181 -69.728485 
L 220.541393 -69.994211 
L 220.839605 -70.259938 
L 221.137817 -70.525664 
L 221.43603 -70.791391 
L 221.734242 -71.057118 
L 222.032454 -71.322844 
L 222.330666 -71.588571 
L 222.628879 -71.854298 
L 222.927091 -72.120025 
L 223.225303 -72.385752 
L 223.523515 -72.651479 
L 223.821728 -72.917206 
L 224.11994 -73.182933 
L 224.418152 -73.44866 
L 224.716364 -73.714387 
L 225.014577 -73.980114 
L 225.312789 -74.245841 
L 225.611001 -74.511568 
L 225.909213 -74.777295 
L 226.207426 -75.043022 
L 226.505638 -75.308749 
L 226.80385 -75.574476 
L 227.102062 -75.840203 
L 227.400275 -76.10593 
L 227.698487 -76.371657 
L 227.996699 -76.637385 
L 228.294911 -76.903112 
L 228.593124 -77.168839 
L 228.891336 -77.434566 
L 229.189548 -77.700293 
L 229.48776 -77.96602 
L 229.785973 -78.231747 
L 230.084185 -78.497474 
L 230.382397 -78.763201 
L 230.680609 -79.028928 
L 230.978822 -79.294655 
L 231.277034 -79.560382 
L 231.575246 -79.82611 
L 231.873458 -80.091837 
L 232.171671 -80.357564 
L 232.469883 -80.623291 
L 232.768095 -80.889018 
L 233.066307 -81.154745 
L 233.36452 -81.420472 
L 233.662732 -81.686199 
L 233.960944 -81.951926 
L 234.259156 -82.217653 
L 234.557369 -82.48338 
L 234.855581 -82.749107 
L 235.153793 -83.014835 
L 235.452005 -83.280562 
L 235.750218 -83.546289 
L 236.04843 -83.812016 
L 236.346642 -84.077743 
L 236.644854 -84.34347 
L 236.943067 -84.609197 
L 237.241279 -84.874924 
L 237.539491 -85.140651 
L 237.837704 -85.406378 
L 238.135916 -85.672105 
L 238.434128 -85.937832 
L 238.73234 -86.20356 
L 239.030553 -86.469287 
L 239.328765 -86.735014 
L 239.626977 -87.000741 
L 239.925189 -87.266468 
L 240.223402 -87.532195 
L 240.521614 -87.797922 
L 240.819826 -88.063649 
L 241.118038 -88.329376 
L 241.416251 -88.595103 
L 241.714463 -88.86083 
L 242.012675 -89.126557 
L 242.310887 -89.392285 
L 242.6091 -89.658012 
L 242.907312 -89.923739 
L 243.205524 -90.189466 
L 243.503736 -90.455193 
L 243.801949 -90.72092 
L 244.100161 -90.986647 
L 244.398373 -91.252374 
L 244.696585 -91.518101 
L 244.994798 -91.783828 
L 245.29301 -92.049555 
L 245.591222 -92.315282 
L 245.889434 -92.58101 
L 246.187647 -92.846737 
L 246.485859 -93.112464 
L 246.784071 -93.378191 
L 247.082283 -93.643918 
L 247.380496 -93.909645 
L 247.678708 -94.175372 
L 247.97692 -94.441099 
L 248.275132 -94.706826 
L 248.573345 -94.972553 
L 248.871557 -95.23828 
L 249.169769 -95.504008 
L 249.467981 -95.769735 
L 249.766194 -96.035462 
L 250.064406 -96.301189 
L 250.362618 -96.566916 
L 250.66083 -96.832643 
L 250.959043 -97.09837 
L 251.257255 -97.364097 
L 251.555467 -97.629824 
L 251.853679 -97.895551 
L 252.151892 -98.161278 
L 252.450104 -98.427005 
L 252.748316 -98.692733 
L 253.046528 -98.95846 
L 253.344741 -99.224187 
L 253.642953 -99.489914 
L 253.941165 -99.755641 
L 254.239377 -100.021368 
L 254.53759 -100.287095 
L 254.835802 -100.552822 
L 255.134014 -100.818549 
L 255.432226 -101.084276 
L 255.730439 -101.350003 
L 256.028651 -101.61573 
L 256.326863 -101.881458 
L 256.625075 -102.147185 
L 256.923288 -102.412912 
L 257.2215 -102.678639 
L 257.519712 -102.944366 
L 257.817925 -103.210093 
L 258.116137 -103.47582 
L 258.414349 -103.741547 
L 258.712561 -104.007274 
L 259.010774 -104.273001 
L 259.308986 -104.538728 
L 259.607198 -104.804455 
L 259.90541 -105.070183 
L 260.203623 -105.33591 
L 260.501835 -105.601637 
L 260.800047 -105.867364 
L 261.098259 -106.133091 
L 261.396472 -106.398818 
L 261.694684 -106.664545 
L 261.992896 -106.930272 
L 262.291108 -107.195999 
L 262.589321 -107.461726 
L 262.887533 -107.727453 
L 263.185745 -107.99318 
L 263.483957 -108.258908 
L 263.78217 -108.524635 
L 264.080382 -108.790362 
L 264.378594 -109.056089 
L 264.676806 -109.321816 
L 264.975019 -109.587543 
L 265.273231 -109.85327 
L 265.571443 -110.118997 
L 265.869655 -110.384724 
L 266.167868 -110.650451 
L 266.46608 -110.916178 
L 266.764292 -111.181905 
L 267.062504 -111.447633 
L 267.360717 -111.71336 
L 267.658929 -111.979087 
L 267.957141 -112.244814 
L 268.255353 -112.510541 
L 268.553566 -112.776268 
L 268.851778 -113.041995 
L 269.14999 -113.307722 
L 269.448202 -113.573449 
L 269.746415 -113.839176 
L 270.044627 -114.104903 
L 270.342839 -114.370631 
L 270.641051 -114.636358 
L 270.939264 -114.902085 
L 271.237476 -115.167812 
L 271.535688 -115.433539 
L 271.8339 -115.699266 
L 272.132113 -115.964993 
L 272.430325 -116.23072 
L 272.728537 -116.496447 
L 273.026749 -116.762174 
L 273.324962 -117.027901 
L 273.623174 -117.293628 
L 273.921386 -117.559356 
L 274.219598 -117.825083 
L 274.517811 -118.09081 
L 274.816023 -118.356537 
L 275.114235 -118.622264 
L 275.412447 -118.887991 
L 275.71066 -119.153718 
L 276.008872 -119.419445 
L 276.307084 -119.685172 
L 276.605297 -119.950899 
L 276.903509 -120.216626 
L 277.201721 -120.482353 
L 277.499933 -120.748081 
L 277.798146 -121.013808 
L 278.096358 -121.279535 
L 278.39457 -121.545262 
L 278.692782 -121.810989 
L 278.990995 -122.076716 
L 279.289207 -122.342443 
L 279.587419 -122.60817 
L 279.885631 -122.873897 
L 280.183844 -123.139624 
L 280.482056 -123.405351 
L 280.780268 -123.671078 
L 281.07848 -123.936806 
L 281.376693 -124.202533 
L 281.674905 -124.46826 
L 281.973117 -124.733987 
L 282.271329 -124.999714 
L 282.569542 -125.265441 
L 282.867754 -125.531168 
L 283.165966 -125.796895 
L 283.464178 -126.062622 
L 283.762391 -126.328349 
L 284.060603 -126.594076 
L 284.358815 -126.859803 
L 284.657027 -127.125531 
L 284.95524 -127.391258 
L 285.253452 -127.656985 
L 285.551664 -127.922712 
L 285.849876 -128.188439 
L 286.148089 -128.454166 
L 286.446301 -128.719893 
L 286.744513 -128.98562 
L 287.042725 -129.251347 
L 287.340938 -129.517074 
L 287.63915 -129.782801 
L 287.937362 -130.048528 
L 288.235574 -130.314256 
L 288.533787 -130.579983 
L 288.831999 -130.84571 
L 289.130211 -131.111437 
L 289.428423 -131.377164 
L 289.726636 -131.642891 
L 290.024848 -131.908618 
L 290.32306 -132.174345 
L 290.621272 -132.440072 
L 290.919485 -132.705799 
L 291.217697 -132.971526 
L 291.515909 -133.237253 
L 291.814121 -133.502981 
L 292.112334 -133.768708 
L 292.410546 -134.034435 
L 292.708758 -134.300162 
L 293.00697 -134.565889 
L 293.305183 -134.831616 
L 293.603395 -135.097343 
L 293.901607 -135.36307 
L 294.199819 -135.628797 
L 294.498032 -135.894524 
L 294.796244 -136.160251 
L 295.094456 -136.425979 
L 295.392668 -136.691706 
L 295.690881 -136.957433 
L 295.989093 -137.22316 
L 296.287305 -137.488887 
L 296.585518 -137.754614 
L 296.88373 -138.020341 
L 297.181942 -138.286068 
L 297.480154 -138.551795 
L 297.778367 -138.817522 
L 298.076579 -139.083249 
L 298.374791 -139.348976 
L 298.673003 -139.614704 
L 298.971216 -139.880431 
L 299.269428 -140.146158 
L 299.56764 -140.411885 
L 299.865852 -140.677612 
L 300.164065 -140.943339 
L 300.462277 -141.209066 
L 300.760489 -141.474793 
L 301.058701 -141.74052 
L 301.356914 -142.006247 
L 301.655126 -142.271974 
L 301.953338 -142.537701 
L 302.25155 -142.803429 
L 302.549763 -143.069156 
L 302.847975 -143.334883 
L 303.146187 -143.60061 
L 303.444399 -143.866337 
L 303.742612 -144.132064 
L 304.040824 -144.397791 
L 304.339036 -144.663518 
L 304.637248 -144.929245 
L 304.935461 -145.194972 
L 305.233673 -145.460699 
L 305.531885 -145.726426 
L 305.830097 -145.992154 
L 306.12831 -146.257881 
L 306.426522 -146.523608 
L 306.724734 -146.789335 
L 307.022946 -147.055062 
L 307.321159 -147.320789 
L 307.619371 -147.586516 
L 307.917583 -147.852243 
L 308.215795 -148.11797 
L 308.514008 -148.383697 
L 308.81222 -148.649424 
L 309.110432 -148.915151 
L 309.408644 -149.180879 
L 309.706857 -149.446606 
L 310.005069 -149.712333 
L 310.303281 -149.97806 
L 310.601493 -150.243787 
L 310.899706 -150.509514 
L 311.197918 -150.775241 
L 311.49613 -151.040968 
L 311.794342 -151.306695 
L 312.092555 -151.572422 
L 312.390767 -151.838149 
L 312.688979 -152.103876 
L 312.987191 -152.369604 
L 313.285404 -152.635331 
L 313.583616 -152.901058 
L 313.881828 -153.166785 
L 314.18004 -153.432512 
L 314.478253 -153.698239 
L 314.776465 -153.963966 
L 315.074677 -154.229693 
L 315.37289 -154.49542 
L 315.671102 -154.761147 
L 315.969314 -155.026874 
L 316.267526 -155.292602 
L 316.565739 -155.558329 
L 316.863951 -155.824056 
L 317.162163 -156.089783 
L 317.460375 -156.35551 
L 317.758588 -156.621237 
L 318.0568 -156.886964 
L 318.355012 -157.152691 
L 318.653224 -157.418418 
L 318.951437 -157.684145 
L 319.249649 -157.949872 
L 319.547861 -158.215599 
L 319.846073 -158.481327 
L 320.144286 -158.747054 
L 320.442498 -159.012781 
L 320.74071 -159.278508 
L 321.038922 -159.544235 
L 321.337135 -159.809962 
L 321.635347 -160.075689 
L 321.933559 -160.341416 
L 322.231771 -160.607143 
L 322.529984 -160.87287 
L 322.828196 -161.138597 
L 323.126408 -161.404324 
L 323.126408 -161.42 
L 323.126408 -161.42 
L 322.828196 -161.42 
L 322.529984 -161.42 
L 322.231771 -161.42 
L 321.933559 -161.42 
L 321.635347 -161.42 
L 321.337135 -161.42 
L 321.038922 -161.42 
L 320.74071 -161.42 
L 320.442498 -161.42 
L 320.144286 -161.42 
L 319.846073 -161.42 
L 319.547861 -161.42 
L 319.249649 -161.42 
L 318.951437 -161.42 
L 318.653224 -161.42 
L 318.355012 -161.42 
L 318.0568 -161.42 
L 317.758588 -161.42 
L 317.460375 -161.42 
L 317.162163 -161.42 
L 316.863951 -161.42 
L 316.565739 -161.42 
L 316.267526 -161.42 
L 315.969314 -161.42 
L 315.671102 -161.42 
L 315.37289 -161.42 
L 315.074677 -161.42 
L 314.776465 -161.42 
L 314.478253 -161.42 
L 314.18004 -161.42 
L 313.881828 -161.42 
L 313.583616 -161.42 
L 313.285404 -161.42 
L 312.987191 -161.42 
L 312.688979 -161.42 
L 312.390767 -161.42 
L 312.092555 -161.42 
L 311.794342 -161.42 
L 311.49613 -161.42 
L 311.197918 -161.42 
L 310.899706 -161.42 
L 310.601493 -161.42 
L 310.303281 -161.42 
L 310.005069 -161.42 
L 309.706857 -161.42 
L 309.408644 -161.42 
L 309.110432 -161.42 
L 308.81222 -161.42 
L 308.514008 -161.42 
L 308.215795 -161.42 
L 307.917583 -161.42 
L 307.619371 -161.42 
L 307.321159 -161.42 
L 307.022946 -161.42 
L 306.724734 -161.42 
L 306.426522 -161.42 
L 306.12831 -161.42 
L 305.830097 -161.42 
L 305.531885 -161.42 
L 305.233673 -161.42 
L 304.935461 -161.42 
L 304.637248 -161.42 
L 304.339036 -161.42 
L 304.040824 -161.42 
L 303.742612 -161.42 
L 303.444399 -161.42 
L 303.146187 -161.42 
L 302.847975 -161.42 
L 302.549763 -161.42 
L 302.25155 -161.42 
L 301.953338 -161.42 
L 301.655126 -161.42 
L 301.356914 -161.42 
L 301.058701 -161.42 
L 300.760489 -161.42 
L 300.462277 -161.42 
L 300.164065 -161.42 
L 299.865852 -161.42 
L 299.56764 -161.42 
L 299.269428 -161.42 
L 298.971216 -161.42 
L 298.673003 -161.42 
L 298.374791 -161.42 
L 298.076579 -161.42 
L 297.778367 -161.42 
L 297.480154 -161.42 
L 297.181942 -161.42 
L 296.88373 -161.42 
L 296.585518 -161.42 
L 296.287305 -161.42 
L 295.989093 -161.42 
L 295.690881 -161.42 
L 295.392668 -161.42 
L 295.094456 -161.42 
L 294.796244 -161.42 
L 294.498032 -161.42 
L 294.199819 -161.42 
L 293.901607 -161.42 
L 293.603395 -161.42 
L 293.305183 -161.42 
L 293.00697 -161.42 
L 292.708758 -161.42 
L 292.410546 -161.42 
L 292.112334 -161.42 
L 291.814121 -161.42 
L 291.515909 -161.42 
L 291.217697 -161.42 
L 290.919485 -161.42 
L 290.621272 -161.42 
L 290.32306 -161.42 
L 290.024848 -161.42 
L 289.726636 -161.42 
L 289.428423 -161.42 
L 289.130211 -161.42 
L 288.831999 -161.42 
L 288.533787 -161.42 
L 288.235574 -161.42 
L 287.937362 -161.42 
L 287.63915 -161.42 
L 287.340938 -161.42 
L 287.042725 -161.42 
L 286.744513 -161.42 
L 286.446301 -161.42 
L 286.148089 -161.42 
L 285.849876 -161.42 
L 285.551664 -161.42 
L 285.253452 -161.42 
L 284.95524 -161.42 
L 284.657027 -161.42 
L 284.358815 -161.42 
L 284.060603 -161.42 
L 283.762391 -161.42 
L 283.464178 -161.42 
L 283.165966 -161.42 
L 282.867754 -161.42 
L 282.569542 -161.42 
L 282.271329 -161.42 
L 281.973117 -161.42 
L 281.674905 -161.42 
L 281.376693 -161.42 
L 281.07848 -161.42 
L 280.780268 -161.42 
L 280.482056 -161.42 
L 280.183844 -161.42 
L 279.885631 -161.42 
L 279.587419 -161.42 
L 279.289207 -161.42 
L 278.990995 -161.42 
L 278.692782 -161.42 
L 278.39457 -161.42 
L 278.096358 -161.42 
L 277.798146 -161.42 
L 277.499933 -161.42 
L 277.201721 -161.42 
L 276.903509 -161.42 
L 276.605297 -161.42 
L 276.307084 -161.42 
L 276.008872 -161.42 
L 275.71066 -161.42 
L 275.412447 -161.42 
L 275.114235 -161.42 
L 274.816023 -161.42 
L 274.517811 -161.42 
L 274.219598 -161.42 
L 273.921386 -161.42 
L 273.623174 -161.42 
L 273.324962 -161.42 
L 273.026749 -161.42 
L 272.728537 -161.42 
L 272.430325 -161.42 
L 272.132113 -161.42 
L 271.8339 -161.42 
L 271.535688 -161.42 
L 271.237476 -161.42 
L 270.939264 -161.42 
L 270.641051 -161.42 
L 270.342839 -161.42 
L 270.044627 -161.42 
L 269.746415 -161.42 
L 269.448202 -161.42 
L 269.14999 -161.42 
L 268.851778 -161.42 
L 268.553566 -161.42 
L 268.255353 -161.42 
L 267.957141 -161.42 
L 267.658929 -161.42 
L 267.360717 -161.42 
L 267.062504 -161.42 
L 266.764292 -161.42 
L 266.46608 -161.42 
L 266.167868 -161.42 
L 265.869655 -161.42 
L 265.571443 -161.42 
L 265.273231 -161.42 
L 264.975019 -161.42 
L 264.676806 -161.42 
L 264.378594 -161.42 
L 264.080382 -161.42 
L 263.78217 -161.42 
L 263.483957 -161.42 
L 263.185745 -161.42 
L 262.887533 -161.42 
L 262.589321 -161.42 
L 262.291108 -161.42 
L 261.992896 -161.42 
L 261.694684 -161.42 
L 261.396472 -161.42 
L 261.098259 -161.42 
L 260.800047 -161.42 
L 260.501835 -161.42 
L 260.203623 -161.42 
L 259.90541 -161.42 
L 259.607198 -161.42 
L 259.308986 -161.42 
L 259.010774 -161.42 
L 258.712561 -161.42 
L 258.414349 -161.42 
L 258.116137 -161.42 
L 257.817925 -161.42 
L 257.519712 -161.42 
L 257.2215 -161.42 
L 256.923288 -161.42 
L 256.625075 -161.42 
L 256.326863 -161.42 
L 256.028651 -161.42 
L 255.730439 -161.42 
L 255.432226 -161.42 
L 255.134014 -161.42 
L 254.835802 -161.42 
L 254.53759 -161.42 
L 254.239377 -161.42 
L 253.941165 -161.42 
L 253.642953 -161.42 
L 253.344741 -161.42 
L 253.046528 -161.42 
L 252.748316 -161.42 
L 252.450104 -161.42 
L 252.151892 -161.42 
L 251.853679 -161.42 
L 251.555467 -161.42 
L 251.257255 -161.42 
L 250.959043 -161.42 
L 250.66083 -161.42 
L 250.362618 -161.42 
L 250.064406 -161.42 
L 249.766194 -161.42 
L 249.467981 -161.42 
L 249.169769 -161.42 
L 248.871557 -161.42 
L 248.573345 -161.42 
L 248.275132 -161.42 
L 247.97692 -161.42 
L 247.678708 -161.42 
L 247.380496 -161.42 
L 247.082283 -161.42 
L 246.784071 -161.42 
L 246.485859 -161.42 
L 246.187647 -161.42 
L 245.889434 -161.42 
L 245.591222 -161.42 
L 245.29301 -161.42 
L 244.994798 -161.42 
L 244.696585 -161.42 
L 244.398373 -161.42 
L 244.100161 -161.42 
L 243.801949 -161.42 
L 243.503736 -161.42 
L 243.205524 -161.42 
L 242.907312 -161.42 
L 242.6091 -161.42 
L 242.310887 -161.42 
L 242.012675 -161.42 
L 241.714463 -161.42 
L 241.416251 -161.42 
L 241.118038 -161.42 
L 240.819826 -161.42 
L 240.521614 -161.42 
L 240.223402 -161.42 
L 239.925189 -161.42 
L 239.626977 -161.42 
L 239.328765 -161.42 
L 239.030553 -161.42 
L 238.73234 -161.42 
L 238.434128 -161.42 
L 238.135916 -161.42 
L 237.837704 -161.42 
L 237.539491 -161.42 
L 237.241279 -161.42 
L 236.943067 -161.42 
L 236.644854 -161.42 
L 236.346642 -161.42 
L 236.04843 -161.42 
L 235.750218 -161.42 
L 235.452005 -161.42 
L 235.153793 -161.42 
L 234.855581 -161.42 
L 234.557369 -161.42 
L 234.259156 -161.42 
L 233.960944 -161.42 
L 233.662732 -161.42 
L 233.36452 -161.42 
L 233.066307 -161.42 
L 232.768095 -161.42 
L 232.469883 -161.42 
L 232.171671 -161.42 
L 231.873458 -161.42 
L 231.575246 -161.42 
L 231.277034 -161.42 
L 230.978822 -161.42 
L 230.680609 -161.42 
L 230.382397 -161.42 
L 230.084185 -161.42 
L 229.785973 -161.42 
L 229.48776 -161.42 
L 229.189548 -161.42 
L 228.891336 -161.42 
L 228.593124 -161.42 
L 228.294911 -161.42 
L 227.996699 -161.42 
L 227.698487 -161.42 
L 227.400275 -161.42 
L 227.102062 -161.42 
L 226.80385 -161.42 
L 226.505638 -161.42 
L 226.207426 -161.42 
L 225.909213 -161.42 
L 225.611001 -161.42 
L 225.312789 -161.42 
L 225.014577 -161.42 
L 224.716364 -161.42 
L 224.418152 -161.42 
L 224.11994 -161.42 
L 223.821728 -161.42 
L 223.523515 -161.42 
L 223.225303 -161.42 
L 222.927091 -161.42 
L 222.628879 -161.42 
L 222.330666 -161.42 
L 222.032454 -161.42 
L 221.734242 -161.42 
L 221.43603 -161.42 
L 221.137817 -161.42 
L 220.839605 -161.42 
L 220.541393 -161.42 
L 220.243181 -161.42 
L 219.944968 -161.42 
L 219.646756 -161.42 
L 219.348544 -161.42 
L 219.050332 -161.42 
L 218.752119 -161.42 
L 218.453907 -161.42 
L 218.155695 -161.42 
L 217.857482 -161.42 
L 217.55927 -161.42 
L 217.261058 -161.42 
L 216.962846 -161.42 
L 216.664633 -161.42 
L 216.366421 -161.42 
L 216.068209 -161.42 
L 215.769997 -161.42 
L 215.471784 -161.42 
L 215.173572 -161.42 
L 214.87536 -161.42 
L 214.577148 -161.42 
L 214.278935 -161.42 
L 213.980723 -161.42 
L 213.682511 -161.42 
L 213.384299 -161.42 
L 213.086086 -161.42 
L 212.787874 -161.42 
L 212.489662 -161.42 
L 212.19145 -161.42 
L 211.893237 -161.42 
L 211.595025 -161.42 
L 211.296813 -161.42 
L 210.998601 -161.42 
L 210.700388 -161.42 
L 210.402176 -161.42 
L 210.103964 -161.42 
L 209.805752 -161.42 
L 209.507539 -161.42 
L 209.209327 -161.42 
L 208.911115 -161.42 
L 208.612903 -161.42 
L 208.31469 -161.42 
L 208.016478 -161.42 
L 207.718266 -161.42 
L 207.420054 -161.42 
L 207.121841 -161.42 
L 206.823629 -161.42 
L 206.525417 -161.42 
L 206.227205 -161.42 
L 205.928992 -161.42 
L 205.63078 -161.42 
L 205.332568 -161.42 
L 205.034356 -161.42 
L 204.736143 -161.42 
L 204.437931 -161.42 
L 204.139719 -161.42 
L 203.841507 -161.42 
L 203.543294 -161.42 
L 203.245082 -161.42 
L 202.94687 -161.42 
L 202.648658 -161.42 
L 202.350445 -161.42 
L 202.052233 -161.42 
L 201.754021 -161.42 
L 201.455809 -161.42 
L 201.157596 -161.42 
L 200.859384 -161.42 
L 200.561172 -161.42 
L 200.26296 -161.42 
L 199.964747 -161.42 
L 199.666535 -161.42 
L 199.368323 -161.42 
L 199.070111 -161.42 
L 198.771898 -161.42 
L 198.473686 -161.42 
L 198.175474 -161.42 
L 197.877261 -161.42 
L 197.579049 -161.42 
L 197.280837 -161.42 
L 196.982625 -161.42 
L 196.684412 -161.42 
L 196.3862 -161.42 
L 196.087988 -161.42 
L 195.789776 -161.42 
L 195.491563 -161.42 
L 195.193351 -161.42 
L 194.895139 -161.42 
L 194.596927 -161.42 
L 194.298714 -161.42 
L 194.000502 -161.42 
L 193.70229 -161.42 
L 193.404078 -161.42 
L 193.105865 -161.42 
L 192.807653 -161.42 
L 192.509441 -161.42 
L 192.211229 -161.42 
L 191.913016 -161.42 
L 191.614804 -161.42 
L 191.316592 -161.42 
L 191.01838 -161.42 
L 190.720167 -161.42 
L 190.421955 -161.42 
L 190.123743 -161.42 
L 189.825531 -161.42 
L 189.527318 -161.42 
L 189.229106 -161.42 
L 188.930894 -161.42 
L 188.632682 -161.42 
L 188.334469 -161.42 
L 188.036257 -161.42 
L 187.738045 -161.42 
L 187.439833 -161.42 
L 187.14162 -161.42 
L 186.843408 -161.42 
L 186.545196 -161.42 
L 186.246984 -161.42 
L 185.948771 -161.42 
L 185.650559 -161.42 
L 185.352347 -161.42 
L 185.054135 -161.42 
L 184.755922 -161.42 
L 184.45771 -161.42 
L 184.159498 -161.42 
L 183.861286 -161.42 
L 183.563073 -161.42 
L 183.264861 -161.42 
L 182.966649 -161.42 
L 182.668437 -161.42 
L 182.370224 -161.42 
L 182.072012 -161.42 
L 181.7738 -161.42 
L 181.475588 -161.42 
L 181.177375 -161.42 
L 180.879163 -161.42 
L 180.580951 -161.42 
L 180.282739 -161.42 
L 179.984526 -161.42 
L 179.686314 -161.42 
L 179.388102 -161.42 
L 179.089889 -161.42 
L 178.791677 -161.42 
L 178.493465 -161.42 
L 178.195253 -161.42 
L 177.89704 -161.42 
L 177.598828 -161.42 
L 177.300616 -161.42 
L 177.002404 -161.42 
L 176.704191 -161.42 
L 176.405979 -161.42 
L 176.107767 -161.42 
L 175.809555 -161.42 
L 175.511342 -161.42 
L 175.21313 -161.42 
L 174.914918 -161.42 
L 174.616706 -161.42 
L 174.318493 -161.42 
L 174.020281 -161.42 
L 173.722069 -161.42 
L 173.423857 -161.42 
L 173.125644 -161.42 
L 172.827432 -161.42 
L 172.52922 -161.42 
L 172.231008 -161.42 
L 171.932795 -161.42 
L 171.634583 -161.42 
L 171.336371 -161.42 
L 171.038159 -161.42 
L 170.739946 -161.42 
L 170.441734 -161.42 
L 170.143522 -161.42 
L 169.84531 -161.42 
L 169.547097 -161.42 
L 169.248885 -161.42 
L 168.950673 -161.42 
L 168.652461 -161.42 
L 168.354248 -161.42 
L 168.056036 -161.42 
L 167.757824 -161.42 
L 167.459612 -161.42 
L 167.161399 -161.42 
L 166.863187 -161.42 
L 166.564975 -161.42 
L 166.266763 -161.42 
L 165.96855 -161.42 
L 165.670338 -161.42 
L 165.372126 -161.42 
L 165.073914 -161.42 
L 164.775701 -161.42 
L 164.477489 -161.42 
L 164.179277 -161.42 
L 163.881065 -161.42 
L 163.582852 -161.42 
L 163.28464 -161.42 
L 162.986428 -161.42 
L 162.688216 -161.42 
L 162.390003 -161.42 
L 162.091791 -161.42 
L 161.793579 -161.42 
L 161.495367 -161.42 
L 161.197154 -161.42 
L 160.898942 -161.42 
L 160.60073 -161.42 
L 160.302518 -161.42 
L 160.004305 -161.42 
L 159.706093 -161.42 
L 159.407881 -161.42 
L 159.109668 -161.42 
L 158.811456 -161.42 
L 158.513244 -161.42 
L 158.215032 -161.42 
L 157.916819 -161.42 
L 157.618607 -161.42 
L 157.320395 -161.42 
L 157.022183 -161.42 
L 156.72397 -161.42 
L 156.425758 -161.42 
L 156.127546 -161.42 
L 155.829334 -161.42 
L 155.531121 -161.42 
L 155.232909 -161.42 
L 154.934697 -161.42 
L 154.636485 -161.42 
L 154.338272 -161.42 
L 154.04006 -161.42 
L 153.741848 -161.42 
L 153.443636 -161.42 
L 153.145423 -161.42 
L 152.847211 -161.42 
L 152.548999 -161.42 
L 152.250787 -161.42 
L 151.952574 -161.42 
L 151.654362 -161.42 
L 151.35615 -161.42 
L 151.057938 -161.42 
L 150.759725 -161.42 
L 150.461513 -161.42 
L 150.163301 -161.42 
L 149.865089 -161.42 
L 149.566876 -161.42 
L 149.268664 -161.42 
L 148.970452 -161.42 
L 148.67224 -161.42 
L 148.374027 -161.42 
L 148.075815 -161.42 
L 147.777603 -161.42 
L 147.479391 -161.42 
L 147.181178 -161.42 
L 146.882966 -161.42 
L 146.584754 -161.42 
L 146.286542 -161.42 
L 145.988329 -161.42 
L 145.690117 -161.42 
L 145.391905 -161.42 
L 145.093693 -161.42 
L 144.79548 -161.42 
L 144.497268 -161.42 
L 144.199056 -161.42 
L 143.900844 -161.42 
L 143.602631 -161.42 
L 143.304419 -161.42 
L 143.006207 -161.42 
L 142.707995 -161.42 
L 142.409782 -161.42 
L 142.11157 -161.42 
L 141.813358 -161.42 
L 141.515146 -161.42 
L 141.216933 -161.42 
L 140.918721 -161.42 
L 140.620509 -161.42 
L 140.322296 -161.42 
L 140.024084 -161.42 
L 139.725872 -161.42 
L 139.42766 -161.42 
L 139.129447 -161.42 
L 138.831235 -161.42 
L 138.533023 -161.42 
L 138.234811 -161.42 
L 137.936598 -161.42 
L 137.638386 -161.42 
L 137.340174 -161.42 
L 137.041962 -161.42 
L 136.743749 -161.42 
L 136.445537 -161.42 
L 136.147325 -161.42 
L 135.849113 -161.42 
L 135.5509 -161.42 
L 135.252688 -161.42 
L 134.954476 -161.42 
L 134.656264 -161.42 
L 134.358051 -161.42 
L 134.059839 -161.42 
L 133.761627 -161.42 
L 133.463415 -161.42 
L 133.165202 -161.42 
L 132.86699 -161.42 
L 132.568778 -161.42 
L 132.270566 -161.42 
L 131.972353 -161.42 
L 131.674141 -161.42 
L 131.375929 -161.42 
L 131.077717 -161.42 
L 130.779504 -161.42 
L 130.481292 -161.42 
L 130.18308 -161.42 
L 129.884868 -161.42 
L 129.586655 -161.42 
L 129.288443 -161.42 
L 128.990231 -161.42 
L 128.692019 -161.42 
L 128.393806 -161.42 
L 128.095594 -161.42 
L 127.797382 -161.42 
L 127.49917 -161.42 
L 127.200957 -161.42 
L 126.902745 -161.42 
L 126.604533 -161.42 
L 126.306321 -161.42 
L 126.008108 -161.42 
L 125.709896 -161.42 
L 125.411684 -161.42 
L 125.113472 -161.42 
L 124.815259 -161.42 
L 124.517047 -161.42 
L 124.218835 -161.42 
L 123.920623 -161.42 
L 123.62241 -161.42 
L 123.324198 -161.42 
L 123.025986 -161.42 
L 122.727774 -161.42 
L 122.429561 -161.42 
L 122.131349 -161.42 
L 121.833137 -161.42 
L 121.534925 -161.42 
L 121.236712 -161.42 
L 120.9385 -161.42 
L 120.640288 -161.42 
L 120.342075 -161.42 
L 120.043863 -161.42 
L 119.745651 -161.42 
L 119.447439 -161.42 
L 119.149226 -161.42 
L 118.851014 -161.42 
L 118.552802 -161.42 
L 118.25459 -161.42 
L 117.956377 -161.42 
L 117.658165 -161.42 
L 117.359953 -161.42 
L 117.061741 -161.42 
L 116.763528 -161.42 
L 116.465316 -161.42 
L 116.167104 -161.42 
L 115.868892 -161.42 
L 115.570679 -161.42 
L 115.272467 -161.42 
L 114.974255 -161.42 
L 114.676043 -161.42 
L 114.37783 -161.42 
L 114.079618 -161.42 
L 113.781406 -161.42 
L 113.483194 -161.42 
L 113.184981 -161.42 
L 112.886769 -161.42 
L 112.588557 -161.42 
L 112.290345 -161.42 
L 111.992132 -161.42 
L 111.69392 -161.42 
L 111.395708 -161.42 
L 111.097496 -161.42 
L 110.799283 -161.42 
L 110.501071 -161.42 
L 110.202859 -161.42 
L 109.904647 -161.42 
L 109.606434 -161.42 
L 109.308222 -161.42 
L 109.01001 -161.42 
L 108.711798 -161.42 
L 108.413585 -161.42 
L 108.115373 -161.42 
L 107.817161 -161.42 
L 107.518949 -161.42 
L 107.220736 -161.42 
L 106.922524 -161.42 
L 106.624312 -161.42 
L 106.3261 -161.42 
L 106.027887 -161.42 
L 105.729675 -161.42 
L 105.431463 -161.42 
L 105.133251 -161.42 
L 104.835038 -161.42 
L 104.536826 -161.42 
L 104.238614 -161.42 
L 103.940402 -161.42 
L 103.642189 -161.42 
L 103.343977 -161.42 
L 103.045765 -161.42 
L 102.747553 -161.42 
L 102.44934 -161.42 
L 102.151128 -161.42 
L 101.852916 -161.42 
L 101.554703 -161.42 
L 101.256491 -161.42 
L 100.958279 -161.42 
L 100.660067 -161.42 
L 100.361854 -161.42 
L 100.063642 -161.42 
L 99.76543 -161.42 
L 99.467218 -161.42 
L 99.169005 -161.42 
L 98.870793 -161.42 
L 98.572581 -161.42 
L 98.274369 -161.42 
L 97.976156 -161.42 
L 97.677944 -161.42 
L 97.379732 -161.42 
L 97.08152 -161.42 
L 96.783307 -161.42 
L 96.485095 -161.42 
L 96.186883 -161.42 
L 95.888671 -161.42 
L 95.590458 -161.42 
L 95.292246 -161.42 
L 94.994034 -161.42 
L 94.695822 -161.42 
L 94.397609 -161.42 
L 94.099397 -161.42 
L 93.801185 -161.42 
L 93.502973 -161.42 
L 93.20476 -161.42 
L 92.906548 -161.42 
L 92.608336 -161.42 
L 92.310124 -161.42 
L 92.011911 -161.42 
L 91.713699 -161.42 
L 91.415487 -161.42 
L 91.117275 -161.42 
L 90.819062 -161.42 
L 90.52085 -161.42 
L 90.222638 -161.42 
L 89.924426 -161.42 
L 89.626213 -161.42 
L 89.328001 -161.42 
L 89.029789 -161.42 
L 88.731577 -161.42 
L 88.433364 -161.42 
L 88.135152 -161.42 
L 87.83694 -161.42 
L 87.538728 -161.42 
L 87.240515 -161.42 
L 86.942303 -161.42 
L 86.644091 -161.42 
L 86.345879 -161.42 
L 86.047666 -161.42 
L 85.749454 -161.42 
L 85.451242 -161.42 
L 85.15303 -161.42 
L 84.854817 -161.42 
L 84.556605 -161.42 
L 84.258393 -161.42 
L 83.960181 -161.42 
L 83.661968 -161.42 
L 83.363756 -161.42 
L 83.065544 -161.42 
L 82.767332 -161.42 
L 82.469119 -161.42 
L 82.170907 -161.42 
L 81.872695 -161.42 
L 81.574482 -161.42 
L 81.27627 -161.42 
L 80.978058 -161.42 
L 80.679846 -161.42 
L 80.381633 -161.42 
L 80.083421 -161.42 
L 79.785209 -161.42 
L 79.486997 -161.42 
L 79.188784 -161.42 
L 78.890572 -161.42 
L 78.59236 -161.42 
L 78.294148 -161.42 
L 77.995935 -161.42 
L 77.697723 -161.42 
L 77.399511 -161.42 
L 77.101299 -161.42 
L 76.803086 -161.42 
L 76.504874 -161.42 
L 76.206662 -161.42 
L 75.90845 -161.42 
L 75.610237 -161.42 
L 75.312025 -161.42 
L 75.013813 -161.42 
L 74.715601 -161.42 
L 74.417388 -161.42 
L 74.119176 -161.42 
L 73.820964 -161.42 
L 73.522752 -161.42 
L 73.224539 -161.42 
L 72.926327 -161.42 
L 72.628115 -161.42 
z
" style="stroke: #ff0000; stroke-opacity: 0.3"/>
    </defs>
    <g clip-path="url(#pe9eaa22e0f)">
     <use xlink:href="#ma0c1e93223" x="0" y="216" style="fill: #ff0000; fill-opacity: 0.3; stroke: #ff0000; stroke-opacity: 0.3"/>
    </g>
   </g>
   <g id="matplotlib.axis_1">
    <g id="xtick_1">
     <g id="line2d_1">
      <path d="M 40.12 174.04 
L 40.12 14.76 
" clip-path="url(#pe9eaa22e0f)" style="fill: none; stroke: #b0b0b0; stroke-width: 0.8; stroke-linecap: square"/>
     </g>
     <g id="line2d_2">
      <defs>
       <path id="m39b92ec279" d="M 0 0 
L 0 3.5 
" style="stroke: #000000; stroke-width: 0.8"/>
      </defs>
      <g>
       <use xlink:href="#m39b92ec279" x="40.12" y="174.04" style="stroke: #000000; stroke-width: 0.8"/>
      </g>
     </g>
     <g id="text_1">
      <!-- 0.00 -->
      <g transform="translate(28.987188 188.638438)scale(0.1 -0.1)">
       <defs>
        <path id="DejaVuSans-30" d="M 2034 4250 
Q 1547 4250 1301 3770 
Q 1056 3291 1056 2328 
Q 1056 1369 1301 889 
Q 1547 409 2034 409 
Q 2525 409 2770 889 
Q 3016 1369 3016 2328 
Q 3016 3291 2770 3770 
Q 2525 4250 2034 4250 
z
M 2034 4750 
Q 2819 4750 3233 4129 
Q 3647 3509 3647 2328 
Q 3647 1150 3233 529 
Q 2819 -91 2034 -91 
Q 1250 -91 836 529 
Q 422 1150 422 2328 
Q 422 3509 836 4129 
Q 1250 4750 2034 4750 
z
" transform="scale(0.015625)"/>
        <path id="DejaVuSans-2e" d="M 684 794 
L 1344 794 
L 1344 0 
L 684 0 
L 684 794 
z
" transform="scale(0.015625)"/>
       </defs>
       <use xlink:href="#DejaVuSans-30"/>
       <use xlink:href="#DejaVuSans-2e" x="63.623047"/>
       <use xlink:href="#DejaVuSans-30" x="95.410156"/>
       <use xlink:href="#DejaVuSans-30" x="159.033203"/>
      </g>
     </g>
    </g>
    <g id="xtick_2">
     <g id="line2d_3">
      <path d="M 72.8912 174.04 
L 72.8912 14.76 
" clip-path="url(#pe9eaa22e0f)" style="fill: none; stroke: #b0b0b0; stroke-width: 0.8; stroke-linecap: square"/>
     </g>
     <g id="line2d_4">
      <g>
       <use xlink:href="#m39b92ec279" x="72.8912" y="174.04" style="stroke: #000000; stroke-width: 0.8"/>
      </g>
     </g>
     <g id="text_2">
      <!-- 0.11 -->
      <g transform="translate(61.758387 188.638438)scale(0.1 -0.1)">
       <defs>
        <path id="DejaVuSans-31" d="M 794 531 
L 1825 531 
L 1825 4091 
L 703 3866 
L 703 4441 
L 1819 4666 
L 2450 4666 
L 2450 531 
L 3481 531 
L 3481 0 
L 794 0 
L 794 531 
z
" transform="scale(0.015625)"/>
       </defs>
       <use xlink:href="#DejaVuSans-30"/>
       <use xlink:href="#DejaVuSans-2e" x="63.623047"/>
       <use xlink:href="#DejaVuSans-31" x="95.410156"/>
       <use xlink:href="#DejaVuSans-31" x="159.033203"/>
      </g>
     </g>
    </g>
    <g id="xtick_3">
     <g id="line2d_5">
      <path d="M 57.9952 174.04 
L 57.9952 14.76 
" clip-path="url(#pe9eaa22e0f)" style="fill: none; stroke: #b0b0b0; stroke-width: 0.8; stroke-linecap: square"/>
     </g>
     <g id="line2d_6">
      <g>
       <use xlink:href="#m39b92ec279" x="57.9952" y="174.04" style="stroke: #000000; stroke-width: 0.8"/>
      </g>
     </g>
     <g id="text_3">
      <!-- 0.06 -->
      <g transform="translate(46.862387 188.638438)scale(0.1 -0.1)">
       <defs>
        <path id="DejaVuSans-36" d="M 2113 2584 
Q 1688 2584 1439 2293 
Q 1191 2003 1191 1497 
Q 1191 994 1439 701 
Q 1688 409 2113 409 
Q 2538 409 2786 701 
Q 3034 994 3034 1497 
Q 3034 2003 2786 2293 
Q 2538 2584 2113 2584 
z
M 3366 4563 
L 3366 3988 
Q 3128 4100 2886 4159 
Q 2644 4219 2406 4219 
Q 1781 4219 1451 3797 
Q 1122 3375 1075 2522 
Q 1259 2794 1537 2939 
Q 1816 3084 2150 3084 
Q 2853 3084 3261 2657 
Q 3669 2231 3669 1497 
Q 3669 778 3244 343 
Q 2819 -91 2113 -91 
Q 1303 -91 875 529 
Q 447 1150 447 2328 
Q 447 3434 972 4092 
Q 1497 4750 2381 4750 
Q 2619 4750 2861 4703 
Q 3103 4656 3366 4563 
z
" transform="scale(0.015625)"/>
       </defs>
       <use xlink:href="#DejaVuSans-30"/>
       <use xlink:href="#DejaVuSans-2e" x="63.623047"/>
       <use xlink:href="#DejaVuSans-30" x="95.410156"/>
       <use xlink:href="#DejaVuSans-36" x="159.033203"/>
      </g>
     </g>
    </g>
    <g id="xtick_4">
     <g id="line2d_7">
      <path d="M 198.0176 174.04 
L 198.0176 14.76 
" clip-path="url(#pe9eaa22e0f)" style="fill: none; stroke: #b0b0b0; stroke-width: 0.8; stroke-linecap: square"/>
     </g>
     <g id="line2d_8">
      <g>
       <use xlink:href="#m39b92ec279" x="198.0176" y="174.04" style="stroke: #000000; stroke-width: 0.8"/>
      </g>
     </g>
     <g id="text_4">
      <!-- 0.53 -->
      <g transform="translate(186.884787 188.638438)scale(0.1 -0.1)">
       <defs>
        <path id="DejaVuSans-35" d="M 691 4666 
L 3169 4666 
L 3169 4134 
L 1269 4134 
L 1269 2991 
Q 1406 3038 1543 3061 
Q 1681 3084 1819 3084 
Q 2600 3084 3056 2656 
Q 3513 2228 3513 1497 
Q 3513 744 3044 326 
Q 2575 -91 1722 -91 
Q 1428 -91 1123 -41 
Q 819 9 494 109 
L 494 744 
Q 775 591 1075 516 
Q 1375 441 1709 441 
Q 2250 441 2565 725 
Q 2881 1009 2881 1497 
Q 2881 1984 2565 2268 
Q 2250 2553 1709 2553 
Q 1456 2553 1204 2497 
Q 953 2441 691 2322 
L 691 4666 
z
" transform="scale(0.015625)"/>
        <path id="DejaVuSans-33" d="M 2597 2516 
Q 3050 2419 3304 2112 
Q 3559 1806 3559 1356 
Q 3559 666 3084 287 
Q 2609 -91 1734 -91 
Q 1441 -91 1130 -33 
Q 819 25 488 141 
L 488 750 
Q 750 597 1062 519 
Q 1375 441 1716 441 
Q 2309 441 2620 675 
Q 2931 909 2931 1356 
Q 2931 1769 2642 2001 
Q 2353 2234 1838 2234 
L 1294 2234 
L 1294 2753 
L 1863 2753 
Q 2328 2753 2575 2939 
Q 2822 3125 2822 3475 
Q 2822 3834 2567 4026 
Q 2313 4219 1838 4219 
Q 1578 4219 1281 4162 
Q 984 4106 628 3988 
L 628 4550 
Q 988 4650 1302 4700 
Q 1616 4750 1894 4750 
Q 2613 4750 3031 4423 
Q 3450 4097 3450 3541 
Q 3450 3153 3228 2886 
Q 3006 2619 2597 2516 
z
" transform="scale(0.015625)"/>
       </defs>
       <use xlink:href="#DejaVuSans-30"/>
       <use xlink:href="#DejaVuSans-2e" x="63.623047"/>
       <use xlink:href="#DejaVuSans-35" x="95.410156"/>
       <use xlink:href="#DejaVuSans-33" x="159.033203"/>
      </g>
     </g>
    </g>
    <g id="xtick_5">
     <g id="line2d_9">
      <path d="M 323.144 174.04 
L 323.144 14.76 
" clip-path="url(#pe9eaa22e0f)" style="fill: none; stroke: #b0b0b0; stroke-width: 0.8; stroke-linecap: square"/>
     </g>
     <g id="line2d_10">
      <g>
       <use xlink:href="#m39b92ec279" x="323.144" y="174.04" style="stroke: #000000; stroke-width: 0.8"/>
      </g>
     </g>
     <g id="text_5">
      <!-- 0.95 -->
      <g transform="translate(312.011187 188.638438)scale(0.1 -0.1)">
       <defs>
        <path id="DejaVuSans-39" d="M 703 97 
L 703 672 
Q 941 559 1184 500 
Q 1428 441 1663 441 
Q 2288 441 2617 861 
Q 2947 1281 2994 2138 
Q 2813 1869 2534 1725 
Q 2256 1581 1919 1581 
Q 1219 1581 811 2004 
Q 403 2428 403 3163 
Q 403 3881 828 4315 
Q 1253 4750 1959 4750 
Q 2769 4750 3195 4129 
Q 3622 3509 3622 2328 
Q 3622 1225 3098 567 
Q 2575 -91 1691 -91 
Q 1453 -91 1209 -44 
Q 966 3 703 97 
z
M 1959 2075 
Q 2384 2075 2632 2365 
Q 2881 2656 2881 3163 
Q 2881 3666 2632 3958 
Q 2384 4250 1959 4250 
Q 1534 4250 1286 3958 
Q 1038 3666 1038 3163 
Q 1038 2656 1286 2365 
Q 1534 2075 1959 2075 
z
" transform="scale(0.015625)"/>
       </defs>
       <use xlink:href="#DejaVuSans-30"/>
       <use xlink:href="#DejaVuSans-2e" x="63.623047"/>
       <use xlink:href="#DejaVuSans-39" x="95.410156"/>
       <use xlink:href="#DejaVuSans-35" x="159.033203"/>
      </g>
     </g>
    </g>
    <g id="xtick_6">
     <g id="line2d_11">
      <path d="M 338.04 174.04 
L 338.04 14.76 
" clip-path="url(#pe9eaa22e0f)" style="fill: none; stroke: #b0b0b0; stroke-width: 0.8; stroke-linecap: square"/>
     </g>
     <g id="line2d_12">
      <g>
       <use xlink:href="#m39b92ec279" x="338.04" y="174.04" style="stroke: #000000; stroke-width: 0.8"/>
      </g>
     </g>
     <g id="text_6">
      <!-- 1.00 -->
      <g transform="translate(326.907187 188.638438)scale(0.1 -0.1)">
       <use xlink:href="#DejaVuSans-31"/>
       <use xlink:href="#DejaVuSans-2e" x="63.623047"/>
       <use xlink:href="#DejaVuSans-30" x="95.410156"/>
       <use xlink:href="#DejaVuSans-30" x="159.033203"/>
      </g>
     </g>
    </g>
    <g id="text_7">
     <!-- x = log2(d)/log2(p) -->
     <g transform="translate(141.308906 202.316563)scale(0.1 -0.1)">
      <defs>
       <path id="DejaVuSans-78" d="M 3513 3500 
L 2247 1797 
L 3578 0 
L 2900 0 
L 1881 1375 
L 863 0 
L 184 0 
L 1544 1831 
L 300 3500 
L 978 3500 
L 1906 2253 
L 2834 3500 
L 3513 3500 
z
" transform="scale(0.015625)"/>
       <path id="DejaVuSans-20" transform="scale(0.015625)"/>
       <path id="DejaVuSans-3d" d="M 678 2906 
L 4684 2906 
L 4684 2381 
L 678 2381 
L 678 2906 
z
M 678 1631 
L 4684 1631 
L 4684 1100 
L 678 1100 
L 678 1631 
z
" transform="scale(0.015625)"/>
       <path id="DejaVuSans-6c" d="M 603 4863 
L 1178 4863 
L 1178 0 
L 603 0 
L 603 4863 
z
" transform="scale(0.015625)"/>
       <path id="DejaVuSans-6f" d="M 1959 3097 
Q 1497 3097 1228 2736 
Q 959 2375 959 1747 
Q 959 1119 1226 758 
Q 1494 397 1959 397 
Q 2419 397 2687 759 
Q 2956 1122 2956 1747 
Q 2956 2369 2687 2733 
Q 2419 3097 1959 3097 
z
M 1959 3584 
Q 2709 3584 3137 3096 
Q 3566 2609 3566 1747 
Q 3566 888 3137 398 
Q 2709 -91 1959 -91 
Q 1206 -91 779 398 
Q 353 888 353 1747 
Q 353 2609 779 3096 
Q 1206 3584 1959 3584 
z
" transform="scale(0.015625)"/>
       <path id="DejaVuSans-67" d="M 2906 1791 
Q 2906 2416 2648 2759 
Q 2391 3103 1925 3103 
Q 1463 3103 1205 2759 
Q 947 2416 947 1791 
Q 947 1169 1205 825 
Q 1463 481 1925 481 
Q 2391 481 2648 825 
Q 2906 1169 2906 1791 
z
M 3481 434 
Q 3481 -459 3084 -895 
Q 2688 -1331 1869 -1331 
Q 1566 -1331 1297 -1286 
Q 1028 -1241 775 -1147 
L 775 -588 
Q 1028 -725 1275 -790 
Q 1522 -856 1778 -856 
Q 2344 -856 2625 -561 
Q 2906 -266 2906 331 
L 2906 616 
Q 2728 306 2450 153 
Q 2172 0 1784 0 
Q 1141 0 747 490 
Q 353 981 353 1791 
Q 353 2603 747 3093 
Q 1141 3584 1784 3584 
Q 2172 3584 2450 3431 
Q 2728 3278 2906 2969 
L 2906 3500 
L 3481 3500 
L 3481 434 
z
" transform="scale(0.015625)"/>
       <path id="DejaVuSans-32" d="M 1228 531 
L 3431 531 
L 3431 0 
L 469 0 
L 469 531 
Q 828 903 1448 1529 
Q 2069 2156 2228 2338 
Q 2531 2678 2651 2914 
Q 2772 3150 2772 3378 
Q 2772 3750 2511 3984 
Q 2250 4219 1831 4219 
Q 1534 4219 1204 4116 
Q 875 4013 500 3803 
L 500 4441 
Q 881 4594 1212 4672 
Q 1544 4750 1819 4750 
Q 2544 4750 2975 4387 
Q 3406 4025 3406 3419 
Q 3406 3131 3298 2873 
Q 3191 2616 2906 2266 
Q 2828 2175 2409 1742 
Q 1991 1309 1228 531 
z
" transform="scale(0.015625)"/>
       <path id="DejaVuSans-28" d="M 1984 4856 
Q 1566 4138 1362 3434 
Q 1159 2731 1159 2009 
Q 1159 1288 1364 580 
Q 1569 -128 1984 -844 
L 1484 -844 
Q 1016 -109 783 600 
Q 550 1309 550 2009 
Q 550 2706 781 3412 
Q 1013 4119 1484 4856 
L 1984 4856 
z
" transform="scale(0.015625)"/>
       <path id="DejaVuSans-64" d="M 2906 2969 
L 2906 4863 
L 3481 4863 
L 3481 0 
L 2906 0 
L 2906 525 
Q 2725 213 2448 61 
Q 2172 -91 1784 -91 
Q 1150 -91 751 415 
Q 353 922 353 1747 
Q 353 2572 751 3078 
Q 1150 3584 1784 3584 
Q 2172 3584 2448 3432 
Q 2725 3281 2906 2969 
z
M 947 1747 
Q 947 1113 1208 752 
Q 1469 391 1925 391 
Q 2381 391 2643 752 
Q 2906 1113 2906 1747 
Q 2906 2381 2643 2742 
Q 2381 3103 1925 3103 
Q 1469 3103 1208 2742 
Q 947 2381 947 1747 
z
" transform="scale(0.015625)"/>
       <path id="DejaVuSans-29" d="M 513 4856 
L 1013 4856 
Q 1481 4119 1714 3412 
Q 1947 2706 1947 2009 
Q 1947 1309 1714 600 
Q 1481 -109 1013 -844 
L 513 -844 
Q 928 -128 1133 580 
Q 1338 1288 1338 2009 
Q 1338 2731 1133 3434 
Q 928 4138 513 4856 
z
" transform="scale(0.015625)"/>
       <path id="DejaVuSans-2f" d="M 1625 4666 
L 2156 4666 
L 531 -594 
L 0 -594 
L 1625 4666 
z
" transform="scale(0.015625)"/>
       <path id="DejaVuSans-70" d="M 1159 525 
L 1159 -1331 
L 581 -1331 
L 581 3500 
L 1159 3500 
L 1159 2969 
Q 1341 3281 1617 3432 
Q 1894 3584 2278 3584 
Q 2916 3584 3314 3078 
Q 3713 2572 3713 1747 
Q 3713 922 3314 415 
Q 2916 -91 2278 -91 
Q 1894 -91 1617 61 
Q 1341 213 1159 525 
z
M 3116 1747 
Q 3116 2381 2855 2742 
Q 2594 3103 2138 3103 
Q 1681 3103 1420 2742 
Q 1159 2381 1159 1747 
Q 1159 1113 1420 752 
Q 1681 391 2138 391 
Q 2594 391 2855 752 
Q 3116 1113 3116 1747 
z
" transform="scale(0.015625)"/>
      </defs>
      <use xlink:href="#DejaVuSans-78"/>
      <use xlink:href="#DejaVuSans-20" x="59.179688"/>
      <use xlink:href="#DejaVuSans-3d" x="90.966797"/>
      <use xlink:href="#DejaVuSans-20" x="174.755859"/>
      <use xlink:href="#DejaVuSans-6c" x="206.542969"/>
      <use xlink:href="#DejaVuSans-6f" x="234.326172"/>
      <use xlink:href="#DejaVuSans-67" x="295.507812"/>
      <use xlink:href="#DejaVuSans-32" x="358.984375"/>
      <use xlink:href="#DejaVuSans-28" x="422.607422"/>
      <use xlink:href="#DejaVuSans-64" x="461.621094"/>
      <use xlink:href="#DejaVuSans-29" x="525.097656"/>
      <use xlink:href="#DejaVuSans-2f" x="564.111328"/>
      <use xlink:href="#DejaVuSans-6c" x="597.802734"/>
      <use xlink:href="#DejaVuSans-6f" x="625.585938"/>
      <use xlink:href="#DejaVuSans-67" x="686.767578"/>
      <use xlink:href="#DejaVuSans-32" x="750.244141"/>
      <use xlink:href="#DejaVuSans-28" x="813.867188"/>
      <use xlink:href="#DejaVuSans-70" x="852.880859"/>
      <use xlink:href="#DejaVuSans-29" x="916.357422"/>
     </g>
    </g>
   </g>
   <g id="matplotlib.axis_2">
    <g id="ytick_1">
     <g id="line2d_13">
      <path d="M 40.12 174.04 
L 338.04 174.04 
" clip-path="url(#pe9eaa22e0f)" style="fill: none; stroke: #b0b0b0; stroke-width: 0.8; stroke-linecap: square"/>
     </g>
     <g id="line2d_14">
      <defs>
       <path id="mf234ac0b06" d="M 0 0 
L -3.5 0 
" style="stroke: #000000; stroke-width: 0.8"/>
      </defs>
      <g>
       <use xlink:href="#mf234ac0b06" x="40.12" y="174.04" style="stroke: #000000; stroke-width: 0.8"/>
      </g>
     </g>
     <g id="text_8">
      <!-- 0.25 -->
      <g transform="translate(10.854375 177.839219)scale(0.1 -0.1)">
       <use xlink:href="#DejaVuSans-30"/>
       <use xlink:href="#DejaVuSans-2e" x="63.623047"/>
       <use xlink:href="#DejaVuSans-32" x="95.410156"/>
       <use xlink:href="#DejaVuSans-35" x="159.033203"/>
      </g>
     </g>
    </g>
    <g id="ytick_2">
     <g id="line2d_15">
      <path d="M 40.12 163.421333 
L 338.04 163.421333 
" clip-path="url(#pe9eaa22e0f)" style="fill: none; stroke: #b0b0b0; stroke-width: 0.8; stroke-linecap: square"/>
     </g>
     <g id="line2d_16">
      <g>
       <use xlink:href="#mf234ac0b06" x="40.12" y="163.421333" style="stroke: #000000; stroke-width: 0.8"/>
      </g>
     </g>
     <g id="text_9">
      <!-- 0.27 -->
      <g transform="translate(10.854375 167.220552)scale(0.1 -0.1)">
       <defs>
        <path id="DejaVuSans-37" d="M 525 4666 
L 3525 4666 
L 3525 4397 
L 1831 0 
L 1172 0 
L 2766 4134 
L 525 4134 
L 525 4666 
z
" transform="scale(0.015625)"/>
       </defs>
       <use xlink:href="#DejaVuSans-30"/>
       <use xlink:href="#DejaVuSans-2e" x="63.623047"/>
       <use xlink:href="#DejaVuSans-32" x="95.410156"/>
       <use xlink:href="#DejaVuSans-37" x="159.033203"/>
      </g>
     </g>
    </g>
    <g id="ytick_3">
     <g id="line2d_17">
      <path d="M 40.12 147.493333 
L 338.04 147.493333 
" clip-path="url(#pe9eaa22e0f)" style="fill: none; stroke: #b0b0b0; stroke-width: 0.8; stroke-linecap: square"/>
     </g>
     <g id="line2d_18">
      <g>
       <use xlink:href="#mf234ac0b06" x="40.12" y="147.493333" style="stroke: #000000; stroke-width: 0.8"/>
      </g>
     </g>
     <g id="text_10">
      <!-- 0.30 -->
      <g transform="translate(10.854375 151.292552)scale(0.1 -0.1)">
       <use xlink:href="#DejaVuSans-30"/>
       <use xlink:href="#DejaVuSans-2e" x="63.623047"/>
       <use xlink:href="#DejaVuSans-33" x="95.410156"/>
       <use xlink:href="#DejaVuSans-30" x="159.033203"/>
      </g>
     </g>
    </g>
    <g id="ytick_4">
     <g id="line2d_19">
      <path d="M 40.12 120.946667 
L 338.04 120.946667 
" clip-path="url(#pe9eaa22e0f)" style="fill: none; stroke: #b0b0b0; stroke-width: 0.8; stroke-linecap: square"/>
     </g>
     <g id="line2d_20">
      <g>
       <use xlink:href="#mf234ac0b06" x="40.12" y="120.946667" style="stroke: #000000; stroke-width: 0.8"/>
      </g>
     </g>
     <g id="text_11">
      <!-- 0.35 -->
      <g transform="translate(10.854375 124.745885)scale(0.1 -0.1)">
       <use xlink:href="#DejaVuSans-30"/>
       <use xlink:href="#DejaVuSans-2e" x="63.623047"/>
       <use xlink:href="#DejaVuSans-33" x="95.410156"/>
       <use xlink:href="#DejaVuSans-35" x="159.033203"/>
      </g>
     </g>
    </g>
    <g id="ytick_5">
     <g id="line2d_21">
      <path d="M 40.12 94.4 
L 338.04 94.4 
" clip-path="url(#pe9eaa22e0f)" style="fill: none; stroke: #b0b0b0; stroke-width: 0.8; stroke-linecap: square"/>
     </g>
     <g id="line2d_22">
      <g>
       <use xlink:href="#mf234ac0b06" x="40.12" y="94.4" style="stroke: #000000; stroke-width: 0.8"/>
      </g>
     </g>
     <g id="text_12">
      <!-- 0.40 -->
      <g transform="translate(10.854375 98.199219)scale(0.1 -0.1)">
       <defs>
        <path id="DejaVuSans-34" d="M 2419 4116 
L 825 1625 
L 2419 1625 
L 2419 4116 
z
M 2253 4666 
L 3047 4666 
L 3047 1625 
L 3713 1625 
L 3713 1100 
L 3047 1100 
L 3047 0 
L 2419 0 
L 2419 1100 
L 313 1100 
L 313 1709 
L 2253 4666 
z
" transform="scale(0.015625)"/>
       </defs>
       <use xlink:href="#DejaVuSans-30"/>
       <use xlink:href="#DejaVuSans-2e" x="63.623047"/>
       <use xlink:href="#DejaVuSans-34" x="95.410156"/>
       <use xlink:href="#DejaVuSans-30" x="159.033203"/>
      </g>
     </g>
    </g>
    <g id="ytick_6">
     <g id="line2d_23">
      <path d="M 40.12 67.853333 
L 338.04 67.853333 
" clip-path="url(#pe9eaa22e0f)" style="fill: none; stroke: #b0b0b0; stroke-width: 0.8; stroke-linecap: square"/>
     </g>
     <g id="line2d_24">
      <g>
       <use xlink:href="#mf234ac0b06" x="40.12" y="67.853333" style="stroke: #000000; stroke-width: 0.8"/>
      </g>
     </g>
     <g id="text_13">
      <!-- 0.45 -->
      <g transform="translate(10.854375 71.652552)scale(0.1 -0.1)">
       <use xlink:href="#DejaVuSans-30"/>
       <use xlink:href="#DejaVuSans-2e" x="63.623047"/>
       <use xlink:href="#DejaVuSans-34" x="95.410156"/>
       <use xlink:href="#DejaVuSans-35" x="159.033203"/>
      </g>
     </g>
    </g>
    <g id="ytick_7">
     <g id="line2d_25">
      <path d="M 40.12 41.306667 
L 338.04 41.306667 
" clip-path="url(#pe9eaa22e0f)" style="fill: none; stroke: #b0b0b0; stroke-width: 0.8; stroke-linecap: square"/>
     </g>
     <g id="line2d_26">
      <g>
       <use xlink:href="#mf234ac0b06" x="40.12" y="41.306667" style="stroke: #000000; stroke-width: 0.8"/>
      </g>
     </g>
     <g id="text_14">
      <!-- 0.50 -->
      <g transform="translate(10.854375 45.105885)scale(0.1 -0.1)">
       <use xlink:href="#DejaVuSans-30"/>
       <use xlink:href="#DejaVuSans-2e" x="63.623047"/>
       <use xlink:href="#DejaVuSans-35" x="95.410156"/>
       <use xlink:href="#DejaVuSans-30" x="159.033203"/>
      </g>
     </g>
    </g>
    <g id="ytick_8">
     <g id="line2d_27">
      <path d="M 40.12 14.76 
L 338.04 14.76 
" clip-path="url(#pe9eaa22e0f)" style="fill: none; stroke: #b0b0b0; stroke-width: 0.8; stroke-linecap: square"/>
     </g>
     <g id="line2d_28">
      <g>
       <use xlink:href="#mf234ac0b06" x="40.12" y="14.76" style="stroke: #000000; stroke-width: 0.8"/>
      </g>
     </g>
     <g id="text_15">
      <!-- 0.55 -->
      <g transform="translate(10.854375 18.559219)scale(0.1 -0.1)">
       <use xlink:href="#DejaVuSans-30"/>
       <use xlink:href="#DejaVuSans-2e" x="63.623047"/>
       <use xlink:href="#DejaVuSans-35" x="95.410156"/>
       <use xlink:href="#DejaVuSans-35" x="159.033203"/>
      </g>
     </g>
    </g>
   </g>
   <g id="line2d_29">
    <path d="M 40.12 54.58 
L 338.04 54.58 
" clip-path="url(#pe9eaa22e0f)" style="fill: none; stroke: #000000; stroke-width: 1.5; stroke-linecap: square"/>
   </g>
   <g id="patch_3">
    <path d="M 40.12 174.04 
L 40.12 14.76 
" style="fill: none; stroke: #000000; stroke-width: 0.8; stroke-linejoin: miter; stroke-linecap: square"/>
   </g>
   <g id="patch_4">
    <path d="M 338.04 174.04 
L 338.04 14.76 
" style="fill: none; stroke: #000000; stroke-width: 0.8; stroke-linejoin: miter; stroke-linecap: square"/>
   </g>
   <g id="patch_5">
    <path d="M 40.12 174.04 
L 338.04 174.04 
" style="fill: none; stroke: #000000; stroke-width: 0.8; stroke-linejoin: miter; stroke-linecap: square"/>
   </g>
   <g id="patch_6">
    <path d="M 40.12 14.76 
L 338.04 14.76 
" style="fill: none; stroke: #000000; stroke-width: 0.8; stroke-linejoin: miter; stroke-linecap: square"/>
   </g>
  </g>
 </g>
 <defs>
  <clipPath id="pe9eaa22e0f">
   <rect x="40.12" y="14.76" width="297.92" height="159.28"/>
  </clipPath>
 </defs>
</svg>
